<?xml version="1.0" ?><svg viewBox="0 0 28.87 28.87" xmlns="http://www.w3.org/2000/svg"><defs><style>.cls-1{fill:#fc5345;}.cls-2{fill:#fff;}</style></defs><title/><g data-name="Layer 2" id="Layer_2"><g data-name="Layer 1" id="Layer_1-2"><rect class="cls-1" height="28.87" rx="6.48" ry="6.48" width="28.87"/><path class="cls-2" d="M12.19,13.31s0,.07,0,.1c0,.75,0,2.37,0,2.37h3.28a2.79,2.79,0,0,1-1.21,1.84,3.52,3.52,0,0,1-1.78.57A3.59,3.59,0,0,1,11.16,18a3.69,3.69,0,0,1-2.53-3.19,3.5,3.5,0,0,1,.07-1.11,3.62,3.62,0,0,1,4-2.82,3.31,3.31,0,0,1,1.8.87L16.32,10a7.48,7.48,0,0,0-1.09-.8,5.84,5.84,0,0,0-2.91-.79l-.59,0a4.8,4.8,0,0,0-1,.16,6.14,6.14,0,0,0-4.65,5.6,5.79,5.79,0,0,0,.13,1.65,6.07,6.07,0,0,0,2.4,3.66,6,6,0,0,0,3.27,1.16,6.51,6.51,0,0,0,2-.2,5.34,5.34,0,0,0,3-2A6.58,6.58,0,0,0,18,13.31Z"/><polygon class="cls-2" points="25.38 13.39 23.3 13.39 23.3 11.32 23.3 11.26 23.24 11.26 21.69 11.26 21.63 11.26 21.63 11.32 21.63 13.39 19.55 13.39 19.49 13.39 19.49 13.46 19.49 15.01 19.49 15.07 19.55 15.07 21.63 15.07 21.63 17.15 21.63 17.21 21.69 17.21 23.24 17.21 23.3 17.21 23.3 17.15 23.3 15.07 25.38 15.07 25.44 15.07 25.44 15.01 25.44 13.46 25.44 13.39 25.38 13.39"/></g></g></svg>