<?xml version="1.0" ?><svg viewBox="0 0 28.87 28.87" xmlns="http://www.w3.org/2000/svg"><defs><style>.cls-1{fill:#fffc00;}.cls-2{fill:#fefefe;stroke:#000;stroke-miterlimit:10;stroke-width:0.5px;}</style></defs><title/><g data-name="Layer 2" id="Layer_2"><g data-name="Layer 1" id="Layer_1-2"><rect class="cls-1" height="28.87" rx="6.48" ry="6.48" width="28.87"/><path class="cls-2" d="M22.83,18.68h0v-.07h0a2.11,2.11,0,0,0-.55-.14h0A5,5,0,0,1,20,16.83a3.86,3.86,0,0,1-.75-1.37h0a.75.75,0,0,1,0-.55h0a1.27,1.27,0,0,1,.82-.48h0a3.75,3.75,0,0,0,1-.55h0c.07-.07.07-.14.14-.21v-.07a.21.21,0,0,0,0-.27h0a.56.56,0,0,0-.34-.34h0a.66.66,0,0,0-.62-.07h0a2.11,2.11,0,0,1-.55.14h-.07a1,1,0,0,1-.62,0v-.14h0a7,7,0,0,1,.07-1.16h0a18.56,18.56,0,0,0-.07-1.91h0a4.3,4.3,0,0,0-1.78-2.6A4.65,4.65,0,0,0,15.1,6.5h0a2.56,2.56,0,0,0-.75-.07,4.6,4.6,0,0,0-2.94,1A5.4,5.4,0,0,0,10,9.24v.07a5,5,0,0,0-.21,2.26h0a11,11,0,0,1,0,1.5h0a1.4,1.4,0,0,1-.75,0H9a2.11,2.11,0,0,1-.55-.14h0a.53.53,0,0,0-.55.14H7.85c-.07.07-.27.21-.27.41v.07h0a.58.58,0,0,0,.21.34c.07.07.14.07.21.14H8a3.48,3.48,0,0,0,1.16.48h0c.21.14.48.27.48.48a1.09,1.09,0,0,1-.21.89h0a5.62,5.62,0,0,1-1.71,2.05,5.59,5.59,0,0,1-1.3.62H6.35a.6.6,0,0,0-.41.27H5.87c0,.14,0,.34.07.41s.14.14.21.14h0a4.35,4.35,0,0,0,1.23.41h0c.27.07.55.14.75.21a.53.53,0,0,0,.07.21c.07.21.14.48.21.75,0,.07.07.07.14.14A.4.4,0,0,0,8.81,21h.07a5.65,5.65,0,0,1,1.85-.07h0a11.3,11.3,0,0,1,1.78,1h0a2.64,2.64,0,0,0,1.44.55h1.23a3.43,3.43,0,0,0,.89-.34h.07A12.48,12.48,0,0,1,17.9,21H18a1.91,1.91,0,0,1,.68-.07h0a5.94,5.94,0,0,1,1.57.07h.07a.15.15,0,0,0,.14-.14.07.07,0,0,0,.07-.07c0-.07.07-.07,0-.07h.07a1.58,1.58,0,0,1,.27-.75.52.52,0,0,1,.34-.14h0a6.47,6.47,0,0,0,1.23-.34h0a1.72,1.72,0,0,0,.55-.34h0C23,19,23,18.74,22.83,18.68Z"/></g></g></svg>