<svg xmlns="http://www.w3.org/2000/svg" xmlns:xlink="http://www.w3.org/1999/xlink" style="" version="1.1" xml:space="preserve" width="56.7" height="56.7"><rect id="backgroundrect" width="100%" height="100%" x="0" y="0" fill="none" stroke="none"/><g class="currentLayer" style=""><title>Layer 1</title><g id="svg_1" class="selected" fill="#ffffff" fill-opacity="1"><path d="M38.8,24.357832450227118 c-2.8,0 -3.7,2.668715196847916 -3.9,4.250176054239273 v0.09884130358695985 l-0.4,1.4826195538043976 c1.2,0.9884130358695984 2.7,1.6803021609783175 4.2,1.6803021609783175 c2,0 3.8,-1.6803021609783175 3.9,-3.854810839891434 C42.6,26.038134611205432 40.9,24.357832450227118 38.8,24.357832450227118 z" id="svg_2" fill="#ffffff" fill-opacity="1"/><path d="M28.9,3.7000000005525098 C15.2,3.7000000005525098 4.1,14.671384698705053 4.1,28.21264329011855 c0,13.541258591413497 11.1,24.51264328956604 24.8,24.51264328956604 c13.7,0 24.8,-10.971384698152542 24.8,-24.51264328956604 C53.7,14.671384698705053 42.6,3.7000000005525098 28.9,3.7000000005525098 zM38.8,35.724582362727496 c-2,0 -3.7,-0.5930478215217592 -5.2,-1.4826195538043976 l-1.7000000000000002,7.907304286956787 H28 l2.4,-10.872543394565582 c-1,-1.3837782502174376 -2,-2.965239107608795 -2.7,-4.447858661413193 v1.6803021609783175 c0,4.052493447065353 -3.3,7.314256465435029 -7.3,7.314256465435029 c-4,0 -7.3,-3.2617630183696744 -7.3,-7.314256465435029 v-9.884130358695984 h3.8 v9.884130358695984 c0,1.9768260717391968 1.6,3.558286929130554 3.6,3.558286929130554 c2,0 3.6,-1.5814608573913576 3.6,-3.558286929130554 v-9.884130358695984 h3.8 c0.8,2.471032589673996 2.1,5.436271697282791 3.8,8.104986894130706 c1,-3.7559695363044736 3.8,-6.02931951880455 7.3,-6.02931951880455 c4.1,0 7.5,3.3606043219566346 7.5,7.413097769021988 C46.3,32.36397804077087 42.9,35.724582362727496 38.8,35.724582362727496 z" id="svg_3" fill="#ffffff" fill-opacity="1"/></g></g></svg>